HIERARCHY
ROOT pelvis
{
	OFFSET 0.003123 -0.351407 0.012037
	CHANNELS 6 Xposition Yposition Zposition Zrotation Yrotation Xrotation 
	JOINT left_hip
	{
		OFFSET 0.058189 -0.092763 -0.026001
		CHANNELS 3 Zrotation Yrotation Xrotation
		JOINT left_knee
		{
			OFFSET 0.054695 -0.378753 -0.009396
			CHANNELS 3 Zrotation Yrotation Xrotation
			JOINT left_ankle
			{
				OFFSET -0.043453 -0.403059 -0.031876
				CHANNELS 3 Zrotation Yrotation Xrotation
				JOINT left_foot
				{
					OFFSET 0.047257 -0.057997 0.118216
					CHANNELS 3 Zrotation Yrotation Xrotation
					End Site
					{
						OFFSET 0.000000 0.000000 0.000000
					}
				}
			}
		}
	}
	JOINT right_hip
	{
		OFFSET -0.063267 -0.103908 -0.021250
		CHANNELS 3 Zrotation Yrotation Xrotation
		JOINT right_knee
		{
			OFFSET -0.044210 -0.362380 -0.016824
			CHANNELS 3 Zrotation Yrotation Xrotation
			JOINT right_ankle
			{
				OFFSET 0.015417 -0.410728 -0.020192
				CHANNELS 3 Zrotation Yrotation Xrotation
				JOINT right_foot
				{
					OFFSET -0.038812 -0.058328 0.119049
					CHANNELS 3 Zrotation Yrotation Xrotation
					End Site
					{
						OFFSET 0.000000 0.000000 0.000000
					}
				}
			}
		}
	}
	JOINT spine_1
	{
		OFFSET -0.002763 0.109891 -0.027618
		CHANNELS 3 Zrotation Yrotation Xrotation
		JOINT spine_2
		{
			OFFSET 0.009448 0.131853 -0.005940
			CHANNELS 3 Zrotation Yrotation Xrotation
			JOINT spine_3
			{
				OFFSET -0.011330 0.052235 0.028447
				CHANNELS 3 Zrotation Yrotation Xrotation
				JOINT neck
				{
					OFFSET -0.012164 0.165167 -0.031615
					CHANNELS 3 Zrotation Yrotation Xrotation
					JOINT head
					{
						OFFSET 0.024783 0.160452 0.020737
						CHANNELS 3 Zrotation Yrotation Xrotation
						End Site
						{
							OFFSET 0.000000 0.000000 0.000000
						}
					}
				}
				JOINT left_collar
				{
					OFFSET 0.046364 0.084944 -0.007220
					CHANNELS 3 Zrotation Yrotation Xrotation
					JOINT left_shoulder
					{
						OFFSET 0.119239 0.057728 -0.015461
						CHANNELS 3 Zrotation Yrotation Xrotation
						JOINT left_elbow
						{
							OFFSET 0.254123 -0.072151 -0.042459
							CHANNELS 3 Zrotation Yrotation Xrotation
							JOINT left_wrist
							{
								OFFSET 0.251987 0.023221 -0.002472
								CHANNELS 3 Zrotation Yrotation Xrotation
								JOINT left_index_1
								{
									OFFSET 0.101902 -0.008688 0.019351
									CHANNELS 3 Zrotation Yrotation Xrotation
									JOINT left_index_2
									{
										OFFSET 0.030149 -0.011154 0.001151
										CHANNELS 3 Zrotation Yrotation Xrotation
										JOINT left_index_3
										{
											OFFSET 0.006504 -0.021577 -0.002433
											CHANNELS 3 Zrotation Yrotation Xrotation
											End Site
											{
												OFFSET 0.000000 0.000000 0.000000
											}
										}
									}
								}
								JOINT left_middle_1
								{
									OFFSET 0.109398 -0.006328 -0.003981
									CHANNELS 3 Zrotation Yrotation Xrotation
									JOINT left_middle_2
									{
										OFFSET 0.026472 -0.015218 -0.004641
										CHANNELS 3 Zrotation Yrotation Xrotation
										JOINT left_middle_3
										{
											OFFSET 0.005022 -0.023347 -0.001911
											CHANNELS 3 Zrotation Yrotation Xrotation
											End Site
											{
												OFFSET 0.000000 0.000000 0.000000
											}
										}
									}
								}
								JOINT left_pinky_1
								{
									OFFSET 0.084047 -0.014539 -0.043750
									CHANNELS 3 Zrotation Yrotation Xrotation
									JOINT left_pinky_2
									{
										OFFSET 0.012124 -0.014448 -0.005375
										CHANNELS 3 Zrotation Yrotation Xrotation
										JOINT left_pinky_3
										{
											OFFSET 0.003798 -0.018853 0.000167
											CHANNELS 3 Zrotation Yrotation Xrotation
											End Site
											{
												OFFSET 0.000000 0.000000 0.000000
											}
										}
									}
								}
								JOINT left_ring_1
								{
									OFFSET 0.097444 -0.009268 -0.027345
									CHANNELS 3 Zrotation Yrotation Xrotation
									JOINT left_ring_2
									{
										OFFSET 0.023561 -0.016057 -0.001895
										CHANNELS 3 Zrotation Yrotation Xrotation
										JOINT left_ring_3
										{
											OFFSET 0.004257 -0.023548 0.000814
											CHANNELS 3 Zrotation Yrotation Xrotation
											End Site
											{
												OFFSET 0.000000 0.000000 0.000000
											}
										}
									}
								}
								JOINT left_thumb_1
								{
									OFFSET 0.040636 -0.017977 0.025611
									CHANNELS 3 Zrotation Yrotation Xrotation
									JOINT left_thumb_2
									{
										OFFSET 0.021637 -0.017639 0.011623
										CHANNELS 3 Zrotation Yrotation Xrotation
										JOINT left_thumb_3
										{
											OFFSET 0.024002 -0.008356 0.006548
											CHANNELS 3 Zrotation Yrotation Xrotation
											End Site
											{
												OFFSET 0.000000 0.000000 0.000000
											}
										}
									}
								}
							}
						}
					}
				}
				JOINT right_collar
				{
					OFFSET -0.047695 0.084339 -0.013400
					CHANNELS 3 Zrotation Yrotation Xrotation
					JOINT right_shoulder
					{
						OFFSET -0.102578 0.053524 -0.012669
						CHANNELS 3 Zrotation Yrotation Xrotation
						JOINT right_elbow
						{
							OFFSET -0.271150 -0.036492 -0.026467
							CHANNELS 3 Zrotation Yrotation Xrotation
							JOINT right_wrist
							{
								OFFSET -0.249267 -0.004533 -0.015325
								CHANNELS 3 Zrotation Yrotation Xrotation
								JOINT right_index_1
								{
									OFFSET -0.099881 -0.011783 0.019600
									CHANNELS 3 Zrotation Yrotation Xrotation
									JOINT right_index_2
									{
										OFFSET -0.030148 -0.011154 0.001151
										CHANNELS 3 Zrotation Yrotation Xrotation
										JOINT right_index_3
										{
											OFFSET -0.006505 -0.021577 -0.002432
											CHANNELS 3 Zrotation Yrotation Xrotation
											End Site
											{
												OFFSET 0.000000 0.000000 0.000000
											}
										}
									}
								}
								JOINT right_middle_1
								{
									OFFSET -0.107376 -0.009422 -0.003734
									CHANNELS 3 Zrotation Yrotation Xrotation
									JOINT right_middle_2
									{
										OFFSET -0.026472 -0.015218 -0.004641
										CHANNELS 3 Zrotation Yrotation Xrotation
										JOINT right_middle_3
										{
											OFFSET -0.005022 -0.023347 -0.001911
											CHANNELS 3 Zrotation Yrotation Xrotation
											End Site
											{
												OFFSET 0.000000 0.000000 0.000000
											}
										}
									}
								}
								JOINT right_pinky_1
								{
									OFFSET -0.082027 -0.017634 -0.043503
									CHANNELS 3 Zrotation Yrotation Xrotation
									JOINT right_pinky_2
									{
										OFFSET -0.012123 -0.014448 -0.005374
										CHANNELS 3 Zrotation Yrotation Xrotation
										JOINT right_pinky_3
										{
											OFFSET -0.003798 -0.018852 0.000167
											CHANNELS 3 Zrotation Yrotation Xrotation
											End Site
											{
												OFFSET 0.000000 0.000000 0.000000
											}
										}
									}
								}
								JOINT right_ring_1
								{
									OFFSET -0.095423 -0.012362 -0.027099
									CHANNELS 3 Zrotation Yrotation Xrotation
									JOINT right_ring_2
									{
										OFFSET -0.023561 -0.016057 -0.001895
										CHANNELS 3 Zrotation Yrotation Xrotation
										JOINT right_ring_3
										{
											OFFSET -0.004257 -0.023548 0.000816
											CHANNELS 3 Zrotation Yrotation Xrotation
											End Site
											{
												OFFSET 0.000000 0.000000 0.000000
											}
										}
									}
								}
								JOINT right_thumb_1
								{
									OFFSET -0.038613 -0.021074 0.025861
									CHANNELS 3 Zrotation Yrotation Xrotation
									JOINT right_thumb_2
									{
										OFFSET -0.021636 -0.017639 0.011623
										CHANNELS 3 Zrotation Yrotation Xrotation
										JOINT right_thumb_3
										{
											OFFSET -0.024004 -0.008353 0.006547
											CHANNELS 3 Zrotation Yrotation Xrotation
											End Site
											{
												OFFSET 0.000000 0.000000 0.000000
											}
										}
									}
								}
							}
						}
					}
				}
			}
		}
	}
}
MOTION
Frames: 4
Frame Time: 0.050000
-0.125290 0.943680 -0.333344 0.202661 -35.472303 -20.781402 7.495313 0.618326 -4.824364 4.288627 -1.490896 25.818191 -6.972810 -11.737198 2.396564 0.000000 0.000000 0.000000 -0.968798 0.291077 22.817795 -1.674419 0.003441 -0.933751 1.935520 4.877775 -1.257999 0.000000 0.000000 0.000000 -4.041223 -0.666771 3.849808 -5.957462 -0.461396 -8.629511 8.921420 -3.243083 29.729092 0.091294 -0.930031 20.041406 0.000000 0.000000 0.000000 -6.205308 5.187041 -2.082695 -43.493351 -44.625918 1.942133 172.299966 -70.906653 -145.400918 28.763692 -18.627180 -49.491943 -17.294611 -20.012864 3.871778 -54.345020 -18.910288 -20.942561 0.000000 0.000000 0.000000 -16.966494 -19.008644 -5.762918 -2.652937 -5.181603 -20.804327 0.000000 0.000000 0.000000 1.514491 -20.817713 -26.457186 1.648169 0.689251 2.191333 0.000000 0.000000 0.000000 -17.200021 -19.310480 -6.554887 9.624643 -3.139475 -18.650711 0.000000 0.000000 0.000000 24.164141 0.374047 -12.608500 -24.722322 -5.166955 5.096807 0.000000 0.000000 0.000000 -1.394888 3.897058 2.198935 35.030940 36.096700 -3.732085 -161.443723 68.320483 -165.675192 -18.008822 25.649639 -39.055428 11.028663 12.511113 0.319887 25.418052 9.730938 -16.119288 0.000000 0.000000 0.000000 21.476787 18.115602 -5.473048 3.573664 4.517743 -18.038973 0.000000 0.000000 0.000000 3.492965 21.169092 -26.365637 12.270418 0.082436 0.118679 0.000000 0.000000 0.000000 19.894610 17.019474 -5.622866 5.664520 6.407369 -15.215480 0.000000 0.000000 0.000000 -27.183942 1.966455 -15.991628 22.009246 -5.557154 7.688335 0.000000 0.000000 0.000000 
-0.129059 0.943680 -0.335983 0.239556 -35.934052 -20.274651 6.949099 0.538165 -4.671361 4.127132 -1.461116 24.015910 -6.948985 -11.879783 2.090294 0.000000 0.000000 0.000000 -0.487569 0.127870 21.942693 -2.112724 0.011180 -0.533966 1.921854 5.279485 -1.599530 0.000000 0.000000 0.000000 -3.536118 -0.518476 2.065925 -6.060984 -0.178329 -7.936134 8.888380 -1.691513 30.684993 1.688029 -1.673139 19.382128 0.000000 0.000000 0.000000 -5.415522 1.615660 -0.121493 -42.029209 -45.947138 1.576029 167.093850 -70.957045 -138.615658 29.355739 -16.825733 -50.243321 -19.174575 -21.944048 5.199570 -56.725777 -16.673886 -18.035941 0.000000 0.000000 0.000000 -18.000835 -20.479918 -5.612937 -1.098078 -4.519083 -20.032025 0.000000 0.000000 0.000000 0.724567 -20.230415 -25.337842 1.695523 -0.038779 -0.132574 0.000000 0.000000 0.000000 -17.683346 -20.372180 -6.592044 10.090988 -2.128799 -14.925703 0.000000 0.000000 0.000000 23.214309 -1.591658 -12.729906 -21.883866 -2.594336 4.974893 0.000000 0.000000 0.000000 -0.465706 1.738382 0.774240 35.776384 35.769091 -3.360598 -163.170165 68.872405 -167.689311 -18.624896 25.950480 -39.357670 14.769520 10.333801 1.091739 25.784229 8.905043 -15.916616 0.000000 0.000000 0.000000 21.530572 16.822419 -5.221677 9.676569 5.591215 -16.753276 0.000000 0.000000 0.000000 8.558538 20.719120 -24.169159 7.378673 0.835564 -1.994114 0.000000 0.000000 0.000000 24.195661 15.776697 -3.844281 1.096711 6.274254 -18.400089 0.000000 0.000000 0.000000 -27.870201 0.846392 -15.786525 24.589336 -5.122388 8.176268 0.000000 0.000000 0.000000 
-0.132828 0.943519 -0.335983 -0.065989 -36.587071 -19.790216 7.042746 0.612362 -3.624379 3.500569 -1.303220 21.466230 -6.938277 -11.683657 2.423213 0.000000 0.000000 0.000000 -0.289645 0.133002 22.241829 -1.638458 -0.005529 -1.538431 2.316166 5.734678 -1.357815 0.000000 0.000000 0.000000 -3.915663 -0.572918 2.797251 -6.041839 -0.392980 -8.460875 9.450127 -3.487256 29.332181 0.674245 -1.070139 20.001353 0.000000 0.000000 0.000000 -6.186948 3.741964 -1.150301 -44.746737 -44.610803 2.602647 173.339253 -71.079768 -146.612259 29.524651 -18.816672 -48.741205 -16.379921 -18.541930 3.208518 -54.096959 -16.949346 -18.518580 0.000000 0.000000 0.000000 -16.312076 -20.542483 -6.228169 -0.734124 -4.384794 -20.018893 0.000000 0.000000 0.000000 1.320144 -19.417951 -24.533008 5.606527 0.030964 0.015232 0.000000 0.000000 0.000000 -16.887736 -18.720320 -6.403993 10.468193 -2.597559 -17.746369 0.000000 0.000000 0.000000 24.718922 0.344020 -13.014101 -25.125689 -5.263678 5.316561 0.000000 0.000000 0.000000 -0.844145 3.232130 1.645982 35.506205 35.044536 -3.836904 -163.692193 68.252072 -169.443329 -18.140093 25.825232 -39.014019 16.310995 10.579471 1.464318 19.328565 7.967706 -18.976613 0.000000 0.000000 0.000000 22.873782 17.029910 -5.011220 8.360807 5.197702 -16.503363 0.000000 0.000000 0.000000 4.784960 20.904048 -25.731365 13.258717 0.535343 -0.875230 0.000000 0.000000 0.000000 21.263573 16.410453 -4.982025 6.224030 6.882874 -15.998644 0.000000 0.000000 0.000000 -26.606418 1.115244 -15.212183 22.957498 -4.612026 7.599796 0.000000 0.000000 0.000000 
-0.136597 0.942874 -0.335983 -0.544382 -36.488330 -19.652674 6.984615 0.639759 -2.816303 3.342295 -1.308025 19.989052 -7.554962 -11.804848 4.196600 0.000000 0.000000 0.000000 0.408831 -0.052987 22.630644 -1.760542 -0.009813 -1.633207 2.135581 5.618202 -1.562586 0.000000 0.000000 0.000000 -3.860611 -0.570174 2.772004 -5.921561 -0.467754 -8.557610 9.146833 -3.731939 29.971788 1.360554 -1.334937 19.358764 0.000000 0.000000 0.000000 -5.399483 3.359300 -1.035124 -45.297960 -45.375900 3.243301 170.968042 -71.398664 -143.615203 29.325603 -18.908374 -48.159434 -15.462580 -18.069687 2.847656 -56.183883 -19.049671 -20.413608 0.000000 0.000000 0.000000 -15.756128 -20.162969 -6.271403 -1.601877 -4.675126 -20.501669 0.000000 0.000000 0.000000 2.336792 -20.595286 -26.350132 5.739572 0.605743 2.063463 0.000000 0.000000 0.000000 -15.938542 -20.359948 -7.452546 9.752287 -2.128699 -15.211197 0.000000 0.000000 0.000000 25.314071 0.553493 -13.282070 -22.242840 -5.224463 4.298038 0.000000 0.000000 0.000000 0.259436 1.689608 0.413342 36.075963 35.037398 -3.690614 -165.656659 68.730590 -172.292196 -16.890934 25.823422 -37.812887 14.153572 13.768846 1.005704 23.082937 9.220659 -18.099262 0.000000 0.000000 0.000000 19.716504 13.294492 -4.761112 9.254893 5.507361 -16.145960 0.000000 0.000000 0.000000 1.931219 19.812512 -25.332085 12.785146 -1.349188 3.192029 0.000000 0.000000 0.000000 18.814164 15.675400 -5.463187 6.287918 8.545644 -20.059576 0.000000 0.000000 0.000000 -25.321721 2.785469 -15.583536 22.160054 -4.992359 7.471378 0.000000 0.000000 0.000000 
